<svg xmlns="http://www.w3.org/2000/svg" viewBox="0 0 506.5 164.6"><style>.st1{fill:#fff}.st3{fill:#59c6d0}.st3,.st4{display:inline}.st5{fill:#59c6d0}</style><g id="Shape"><linearGradient id="XMLID_10_" gradientUnits="userSpaceOnUse" x1="112.74" y1="49.642" x2="51.845" y2="114.943"><stop offset="0" stop-color="#25dadc"/><stop offset=".358" stop-color="#3bb9e2"/><stop offset=".772" stop-color="#5198e7"/><stop offset="1" stop-color="#598ce9"/></linearGradient><path id="XMLID_127_" d="M82.3 37.6c-24.7 0-44.6 20-44.6 44.6 0 24.7 20 44.6 44.6 44.6s44.6-20 44.6-44.6-20-44.6-44.6-44.6zM107 50.1L85.9 74.9l3 2.6 17.5-20.6v50.9l-49-57.6c6.9-5.3 15.4-8.4 24.7-8.4 9.5-.2 18.1 3 24.9 8.3zM41.6 82.3c0-11.4 4.8-21.8 12.4-29.2v58.4c-7.6-7.4-12.4-17.8-12.4-29.2zm15.9 32.2l21.1-24.8-3-2.6-17.5 20.6V56.9l49 57.6c-6.9 5.3-15.4 8.4-24.7 8.4s-18-3.1-24.9-8.4zm53-3V53.1c7.6 7.4 12.4 17.7 12.4 29.2s-4.7 21.8-12.4 29.2z" fill="url(#XMLID_10_)"/></g><g id="Text_1_"><g id="XMLID_308_"><g id="Dagger_2_"><path id="XMLID_350_" class="st1" d="M208.7 69.3c0 2.7-.4 5.3-1.4 7.6-.9 2.3-2.2 4.3-3.9 6-1.7 1.7-3.7 2.9-6 3.8-2.3.9-4.9 1.3-7.6 1.3h-12.6V50.5h12.6c2.7 0 5.2.4 7.5 1.3s4.3 2.2 6 3.9c1.7 1.7 3 3.6 4 6 .9 2.3 1.4 4.8 1.4 7.6zm-4.8 0c0-2.1-.3-4.1-1-5.9-.7-1.8-1.6-3.3-2.9-4.6-1.2-1.3-2.7-2.3-4.5-3-1.7-.7-3.7-1.1-5.8-1.1h-8.2v29.1h8.2c2.1 0 4-.4 5.8-1.1 1.7-.7 3.2-1.7 4.5-3 1.2-1.3 2.2-2.8 2.9-4.6.7-1.7 1-3.7 1-5.8z"/><path id="XMLID_347_" class="st1" d="M251.3 78.4h-16.9l-3.6 9.6h-4.6l14-37.4H245.4L259.5 88h-4.8l-3.4-9.6zm-1.4-3.8l-6.9-19-7.1 19h14z"/><path id="XMLID_346_" class="st1" d="M363.7 78c-.7 1.4-1.7 2.8-3.2 3.9-1.4 1.1-3.4 1.9-5.6 2.2-.3 0-.6.1-.8.1H352.7 351.5c-1.1-.1-2.3-.4-3.4-.8-2.3-.8-4.4-2.3-6-4.2-1.6-1.9-2.8-4.3-3.3-6.9-.1-.6-.2-1.3-.2-1.9v-1-.9c.1-1.3.3-2.6.6-3.8.7-2.4 2.1-4.7 3.8-6.4 1.7-1.7 3.8-2.9 5.9-3.5 1-.3 2.2-.5 3.1-.6 1.1-.1 2.1 0 3 .2 1.9.3 3.6 1 4.9 1.8 1.4.8 2.4 1.7 3.2 2.6.4.4.7.8 1 1.2.3.3.4.6.6.9l.6.9 3.5-2.1s-.2-.3-.5-.9c-.2-.3-.5-.8-.8-1.2-.3-.5-.7-1-1.2-1.5-1-1.1-2.3-2.3-4-3.4-1.7-1.1-3.9-2-6.4-2.4-1.2-.2-2.6-.3-3.9-.2-1.5.1-2.8.3-4.2.7-2.8.8-5.5 2.4-7.8 4.6-2.3 2.2-4 5-5 8.2-.5 1.6-.8 3.2-.9 4.9v1.3c0 .4 0 .7.1 1.2.1.9.2 1.7.3 2.5.7 3.3 2.2 6.4 4.3 8.9 2.1 2.5 4.9 4.4 7.9 5.5 1.5.5 3 .9 4.5 1 .4 0 .8.1 1.1.1h1.1c.3 0 .8 0 1.1-.1.4 0 .7-.1 1.1-.1 2.8-.4 5.5-1.5 7.6-3.1.8-.6 1.5-1.3 2.1-2l.1 4.8h4V67.2h-18.2v4h14v1.5c-.1 2.1-.8 3.9-1.5 5.3z"/><path id="XMLID_345_" class="st1" d="M306.7 78c-.7 1.4-1.7 2.8-3.2 3.9-1.4 1.1-3.4 1.9-5.6 2.2-.3 0-.6.1-.8.1H295.7 294.5c-1.1-.1-2.3-.4-3.4-.8-2.3-.8-4.4-2.3-6-4.2-1.6-1.9-2.8-4.3-3.3-6.9-.1-.6-.2-1.3-.2-1.9v-1-.9c.1-1.3.3-2.6.6-3.8.7-2.4 2.1-4.7 3.8-6.4 1.7-1.7 3.8-2.9 5.9-3.5 1-.3 2.2-.5 3.1-.6 1.1-.1 2.1 0 3 .2 1.9.3 3.6 1 4.9 1.8 1.4.8 2.4 1.7 3.2 2.6.4.4.7.8 1 1.2.3.3.4.6.6.9l.6.9 3.5-2.1s-.2-.3-.5-.9c-.2-.3-.5-.8-.8-1.2-.3-.5-.7-1-1.2-1.5-1-1.1-2.3-2.3-4-3.4-1.7-1.1-3.9-2-6.4-2.4-1.2-.2-2.6-.3-3.9-.2-1.5.1-2.8.3-4.2.7-2.8.8-5.5 2.4-7.8 4.6-2.3 2.2-4 5-5 8.2-.5 1.6-.8 3.2-.9 4.9v1.3c0 .4 0 .7.1 1.2.1.9.2 1.7.3 2.5.7 3.3 2.2 6.4 4.3 8.9 2.1 2.5 4.9 4.4 7.9 5.5 1.5.5 3 .9 4.5 1 .4 0 .8.1 1.1.1h1.1c.3 0 .8 0 1.1-.1.4 0 .7-.1 1.1-.1 2.8-.4 5.5-1.5 7.6-3.1.8-.6 1.5-1.3 2.1-2l.1 4.8h4V67.2h-18.2v4h14v1.5c-.1 2.1-.8 3.9-1.5 5.3z"/><path id="XMLID_343_" class="st1" d="M417.5 83.8V88h-23.1V50.5h23v4.3h-18.6v12.5h16.9v4h-16.9v12.6h18.7z"/><path id="XMLID_340_" class="st1" d="M468.8 88h-5l-7-15.2h-10.9V88h-4.5V50.5h14.8c4 0 7.1 1 9.3 2.9 2.2 2 3.3 4.7 3.3 8.1 0 2.7-.6 5-2 6.8-1.3 1.8-3.1 3.1-5.5 3.7l7.5 16zm-4.7-26.3c0-2.2-.7-4-2.1-5.2-1.4-1.2-3.3-1.9-5.8-1.9h-10.3v14.1h10.4c2.5 0 4.5-.6 5.8-1.9 1.3-1.2 2-2.9 2-5.1z"/></g><g id="By_the_community_3_"><path id="XMLID_336_" class="st1" d="M186.9 110.8c0 .6-.1 1.1-.3 1.5-.2.5-.5.8-.9 1.2-.4.3-.8.6-1.4.7-.5.2-1.1.3-1.8.3H177v-13.9H182.3c1.4 0 2.4.3 3.2 1 .8.7 1.1 1.6 1.1 2.7 0 .8-.2 1.4-.5 2-.3.5-.8 1-1.5 1.3.7.3 1.2.7 1.6 1.3.5.5.7 1.1.7 1.9zm-8.2-8.8v4.9h3.7c.9 0 1.5-.2 2-.7.5-.4.7-1 .7-1.7s-.2-1.3-.7-1.8c-.5-.5-1.2-.7-2-.7h-3.7zm6.7 8.6c0-.8-.3-1.3-.8-1.8-.5-.4-1.2-.7-2-.7h-3.9v4.9h3.9c.9 0 1.5-.2 2-.7.5-.4.8-1 .8-1.7z"/><path id="XMLID_334_" class="st1" d="M196.8 100.5l3.7 6.6 3.7-6.6h1.8l-4.7 8.2v5.8h-1.7v-5.8l-4.7-8.2h1.9z"/><path id="XMLID_332_" class="st1" d="M236 102.1h-4.2v12.4h-1.7v-12.4H226v-1.6h10v1.6z"/><path id="XMLID_330_" class="st1" d="M245.1 100.5h1.7v6.1h7.1v-6.2h1.7v13.9h-1.7V108h-7.1v6.3h-1.7v-13.8z"/><path id="XMLID_328_" class="st1" d="M274.5 112.9v1.6H266v-13.9h8.4v1.6h-6.8v4.6h6.1v1.5h-6.1v4.7h6.9z"/><path id="XMLID_326_" class="st1" d="M306.9 104.9c-.3-.9-.8-1.7-1.6-2.2-.7-.5-1.6-.8-2.7-.8-.7 0-1.4.1-2 .4-.6.3-1.1.6-1.5 1.1-.4.5-.8 1.1-1 1.8-.2.7-.4 1.4-.4 2.3 0 .9.1 1.6.4 2.3.2.7.6 1.3 1 1.8s.9.9 1.5 1.1c.6.3 1.3.4 2 .4 1 0 1.9-.3 2.7-.8.8-.5 1.3-1.2 1.6-2l1.6.7c-.4 1.1-1.2 2-2.3 2.7-1.1.7-2.3 1-3.7 1-1 0-1.9-.2-2.7-.5-.8-.3-1.5-.8-2.1-1.5-.6-.6-1-1.4-1.4-2.3-.3-.9-.5-1.9-.5-2.9 0-1.1.2-2 .5-2.9.3-.9.8-1.6 1.4-2.3.6-.6 1.3-1.1 2.1-1.5.8-.3 1.7-.5 2.7-.5 1.5 0 2.7.4 3.7 1.1 1 .7 1.7 1.7 2.1 2.9l-1.4.6z"/><path id="XMLID_323_" class="st1" d="M323.9 100.3c1 0 1.9.2 2.7.5.8.4 1.5.9 2.1 1.5.6.7 1.1 1.4 1.4 2.3.3.9.5 1.8.5 2.9 0 1-.1 2-.5 2.9-.3.9-.8 1.6-1.4 2.3-.6.6-1.3 1.1-2.1 1.5-.8.4-1.7.5-2.7.5-1 0-1.9-.2-2.7-.5-.8-.4-1.5-.9-2.1-1.5-.6-.6-1-1.4-1.4-2.3-.3-.9-.5-1.8-.5-2.9 0-1 .1-2 .5-2.9.3-.9.8-1.6 1.4-2.3.6-.7 1.3-1.2 2.1-1.5.8-.3 1.7-.5 2.7-.5zm0 12.8c.7 0 1.4-.1 2-.4.6-.3 1.1-.7 1.6-1.1.4-.5.8-1.1 1-1.8.2-.7.4-1.4.4-2.3 0-.8-.1-1.6-.4-2.3-.2-.7-.6-1.3-1-1.8s-1-.9-1.6-1.1c-.6-.3-1.3-.4-2-.4s-1.4.1-2 .4c-.6.3-1.1.7-1.6 1.1-.4.5-.8 1.1-1 1.8-.2.7-.4 1.4-.4 2.3 0 .8.1 1.6.4 2.3.2.7.6 1.3 1 1.8s1 .9 1.6 1.1c.6.2 1.2.4 2 .4z"/><path id="XMLID_321_" class="st1" d="M353.3 100.5v13.9h-1.7v-10.2l-4.1 10.2h-1.6l-4.1-10.1v10.1h-1.6v-13.9h1.6l5 12 4.9-12h1.6z"/><path id="XMLID_319_" class="st1" d="M376.9 100.5v13.9h-1.7v-10.2l-4.1 10.2h-1.6l-4.1-10.1v10.1h-1.6v-13.9h1.6l5 12 4.9-12h1.6z"/><path id="XMLID_317_" class="st1" d="M387.2 100.5h1.7v9.1c0 1.2.4 2.1 1.1 2.7.7.6 1.6.8 2.6.8s1.9-.3 2.6-.9c.7-.6 1.1-1.5 1.1-2.6v-9.1h1.7v9.1c0 .8-.1 1.6-.4 2.2-.3.6-.7 1.2-1.2 1.6-.5.4-1 .7-1.7 1-.6.2-1.3.3-2 .3s-1.4-.1-2-.3c-.6-.2-1.2-.5-1.7-.9s-.9-.9-1.2-1.6c-.3-.6-.4-1.4-.4-2.3v-9.1z"/><path id="XMLID_315_" class="st1" d="M418.9 100.5v13.9h-1.6l-7.4-11.2v11.2h-1.7v-13.9h1.7l7.4 11.2v-11.2h1.6z"/><path id="XMLID_313_" class="st1" d="M429.4 114.5v-13.9h1.7v13.9h-1.7z"/><path id="XMLID_311_" class="st1" d="M450.2 102.1H446v12.4h-1.7v-12.4h-4.2v-1.6h10v1.6z"/><path id="XMLID_309_" class="st1" d="M459.6 100.5l3.7 6.6 3.7-6.6h1.8l-4.7 8.2v5.8h-1.7v-5.8l-4.7-8.2h1.9z"/></g></g></g></svg>