<?xml version="1.0" encoding="utf-8"?>
<!-- Generator: Adobe Illustrator 19.0.0, SVG Export Plug-In . SVG Version: 6.00 Build 0)  -->
<svg version="1.1" id="Layer_1" xmlns="http://www.w3.org/2000/svg" xmlns:xlink="http://www.w3.org/1999/xlink" x="0px" y="0px"
	 viewBox="0 0 300 300" style="enable-background:new 0 0 300 300;" xml:space="preserve">
<style type="text/css">
	.st0{fill:#1F323E;}
	.st1{display:none;}
	.st2{display:inline;fill:none;stroke:#89D8F0;stroke-miterlimit:10;}
	.st3{fill:none;stroke:#89D8F0;stroke-miterlimit:10;}
</style>
<circle id="XMLID_1_" class="st0" cx="150" cy="150" r="26.4"/>
<g id="XMLID_2_">
	<path id="XMLID_31_" class="st0" d="M150,104.4c25.2,0,45.6,20.5,45.6,45.6s-20.5,45.6-45.6,45.6s-45.6-20.5-45.6-45.6
		S124.8,104.4,150,104.4 M150,94.4c-30.7,0-55.6,24.9-55.6,55.6s24.9,55.6,55.6,55.6s55.6-24.9,55.6-55.6S180.7,94.4,150,94.4
		L150,94.4z"/>
</g>
<g id="XMLID_11_" class="st1">
	<path id="XMLID_16_" class="st2" d="M106.2,226.4c3.5,2,7.2,3.8,11.1,5.3c4.3,1.7,8.6,3.1,13,4.1"/>
	<path id="XMLID_18_" class="st2" d="M65.7,175.8c2,6.4,4.7,12.7,8.1,18.5"/>
	<path id="XMLID_19_" class="st2" d="M73.5,105.8c-2,3.5-3.8,7.2-5.3,11.1c-1.6,4-2.9,8.1-3.9,12.2"/>
	<path id="XMLID_20_" class="st2" d="M126.9,64.5c-8.3,2.3-16.2,5.7-23.5,10.2"/>
	<path id="XMLID_17_" class="st2" d="M193.6,72.9c-3.4-1.9-6.9-3.6-10.6-5.1c-4.9-2-9.9-3.5-14.9-4.5"/>
	<path id="XMLID_14_" class="st2" d="M234.5,123.7c-2.3-7.5-5.6-14.7-9.8-21.3"/>
	<path id="XMLID_5_" class="st2" d="M227.9,191.7c1.6-2.9,3-5.9,4.2-9c1.5-3.9,2.8-7.8,3.8-11.7"/>
	<path id="XMLID_3_" class="st2" d="M176.2,234.2c7-2.2,13.7-5.2,19.9-9"/>
	<circle id="XMLID_4_" class="st2" cx="148.1" cy="61.4" r="11"/>
	<circle id="XMLID_6_" class="st2" cx="86.2" cy="88.7" r="10.4"/>
	<circle id="XMLID_7_" class="st2" cx="61.7" cy="151.8" r="9.3"/>
	<circle id="XMLID_8_" class="st2" cx="89" cy="213.7" r="11.6"/>
	<circle id="XMLID_9_" class="st2" cx="152.1" cy="238.2" r="9.8"/>
	<circle id="XMLID_10_" class="st2" cx="214" cy="210.9" r="11.6"/>
	<circle id="XMLID_12_" class="st2" cx="238.5" cy="147.8" r="8.7"/>
	<circle id="XMLID_13_" class="st2" cx="211.2" cy="85.9" r="10.4"/>
</g>
<g id="XMLID_78_">
	<circle id="XMLID_15_" class="st3" cx="148.9" cy="62.6" r="10"/>
	<circle id="XMLID_22_" class="st3" cx="83.1" cy="94.5" r="10.5"/>
	<circle id="XMLID_23_" class="st3" cx="65.2" cy="165.4" r="9"/>
	<circle id="XMLID_24_" class="st3" cx="108" cy="224.6" r="11"/>
	<circle id="XMLID_25_" class="st3" cx="180.9" cy="229.9" r="9"/>
	<circle id="XMLID_26_" class="st3" cx="231.9" cy="177.5" r="9.5"/>
	<circle id="XMLID_28_" class="st3" cx="224.4" cy="104.8" r="11"/>
	<path id="XMLID_30_" class="st3" d="M211.4,88.1c-11-11-24.9-19.1-40.5-22.9"/>
	<path id="XMLID_35_" class="st3" d="M199.8,219.9c8.7-6.1,16.1-13.7,22.1-22.4"/>
	<path id="XMLID_37_" class="st3" d="M126.2,232.2c7.8,2.3,16.2,3.4,24.7,3.4c4.1,0,8.1-0.4,12.1-0.9"/>
	<path id="XMLID_36_" class="st3" d="M70.1,181.8c4.1,10.1,10.1,19.2,17.4,26.9"/>
	<path id="XMLID_29_" class="st3" d="M73.1,109.8c-5.4,10.6-8.7,22.6-9.3,35.2"/>
	<path id="XMLID_21_" class="st3" d="M129.4,65.1c-11.6,2.8-22.2,8-31.4,15"/>
	<path id="XMLID_34_" class="st3" d="M236.2,157.5c0.3-3,0.4-6.1,0.4-9.2c-0.1-9.7-1.8-19-4.8-27.6"/>
</g>
<circle id="XMLID_52_" class="st3" cx="93.9" cy="30.6" r="16.5"/>
<circle id="XMLID_51_" class="st3" cx="24.1" cy="118" r="13"/>
<circle id="XMLID_50_" class="st3" cx="46.2" cy="227.6" r="14.5"/>
<circle id="XMLID_49_" class="st3" cx="144.3" cy="281.1" r="15.5"/>
<circle id="XMLID_48_" class="st3" cx="248.4" cy="240.3" r="14.5"/>
<circle id="XMLID_47_" class="st3" cx="284.1" cy="134.4" r="15"/>
<circle id="XMLID_46_" class="st3" cx="225.9" cy="38.9" r="14"/>
<path id="XMLID_45_" class="st3" d="M197,24.5c-22.4-8-47-9.9-71-4.9"/>
<path id="XMLID_44_" class="st3" d="M277,104c-1.6-4.4-3.4-8.7-5.5-13c-6.5-13.3-15-25-24.8-35"/>
<path id="XMLID_43_" class="st3" d="M267.9,214.1c7.9-14.1,13.2-29.5,15.6-45.5"/>
<path id="XMLID_42_" class="st3" d="M174.4,279.6c12.3-2.1,24.6-5.9,36.3-11.7c5.6-2.8,11-5.9,16-9.3"/>
<path id="XMLID_41_" class="st3" d="M63.7,247c12.3,11.2,26.5,19.8,41.8,25.7"/>
<path id="XMLID_40_" class="st3" d="M20.4,145.7c-0.5,18.3,2.8,36.9,10.3,54.7"/>
<path id="XMLID_39_" class="st3" d="M68.6,46.9C54.6,58.4,43.3,72.6,35.2,88.3"/>
</svg>
