<?xml version="1.0" encoding="utf-8"?>
<!-- Generator: Adobe Illustrator 19.0.0, SVG Export Plug-In . SVG Version: 6.00 Build 0)  -->
<svg version="1.1" id="Layer_1" xmlns="http://www.w3.org/2000/svg" xmlns:xlink="http://www.w3.org/1999/xlink" x="0px" y="0px"
	 viewBox="-6819.9 4472.4 412.4 411.6" style="enable-background:new -6819.9 4472.4 412.4 411.6;" xml:space="preserve">
<style type="text/css">
	.st0{display:none;}
	.st1{display:inline;fill:none;stroke:#89D8F0;stroke-miterlimit:10;}
	.st2{opacity:0.38;fill:#1F323E;enable-background:new    ;}
	.st3{opacity:0.38;}
	.st4{fill:#1F323E;}
	.st5{fill:none;stroke:#89D8F0;stroke-miterlimit:10;}
</style>
<g id="XMLID_11_" class="st0">
	<path id="XMLID_16_" class="st1" d="M-6609.8,4819.3c3.5,2,7.2,3.8,11.1,5.3c4.3,1.7,8.6,3.1,13,4.1"/>
	<path id="XMLID_18_" class="st1" d="M-6650.3,4768.7c2,6.4,4.7,12.7,8.1,18.5"/>
	<path id="XMLID_19_" class="st1" d="M-6642.5,4698.7c-2,3.5-3.8,7.2-5.3,11.1c-1.6,4-2.9,8.1-3.9,12.2"/>
	<path id="XMLID_20_" class="st1" d="M-6589.1,4657.4c-8.3,2.3-16.2,5.7-23.5,10.2"/>
	<path id="XMLID_17_" class="st1" d="M-6522.4,4665.8c-3.4-1.9-6.9-3.6-10.6-5.1c-4.9-2-9.9-3.5-14.9-4.5"/>
	<path id="XMLID_14_" class="st1" d="M-6481.5,4716.6c-2.3-7.5-5.6-14.7-9.8-21.3"/>
	<path id="XMLID_5_" class="st1" d="M-6488.1,4784.6c1.6-2.9,3-5.9,4.2-9c1.5-3.9,2.8-7.8,3.8-11.7"/>
	<path id="XMLID_3_" class="st1" d="M-6539.8,4827.1c7-2.2,13.7-5.2,19.9-9"/>
	<circle id="XMLID_4_" class="st1" cx="-6567.9" cy="4654.3" r="11"/>
	<circle id="XMLID_6_" class="st1" cx="-6629.8" cy="4681.6" r="10.4"/>
	<circle id="XMLID_7_" class="st1" cx="-6654.3" cy="4744.7" r="9.3"/>
	<circle id="XMLID_8_" class="st1" cx="-6627" cy="4806.6" r="11.6"/>
	<circle id="XMLID_9_" class="st1" cx="-6563.9" cy="4831.1" r="9.8"/>
	<circle id="XMLID_10_" class="st1" cx="-6502" cy="4803.8" r="11.6"/>
	<circle id="XMLID_12_" class="st1" cx="-6477.5" cy="4740.7" r="8.7"/>
	<circle id="XMLID_13_" class="st1" cx="-6504.8" cy="4678.8" r="10.4"/>
</g>
<circle id="XMLID_1_" class="st2" cx="-6752" cy="4553.1" r="41.7"/>
<g id="XMLID_2_" class="st3">
	<path id="XMLID_31_" class="st4" d="M-6752,4480.9c39.8,0,72,32.4,72,72s-32.4,72-72,72s-72-32.4-72-72S-6791.8,4480.9-6752,4480.9
		 M-6752,4465.1c-48.5,0-87.8,39.3-87.8,87.8c0,48.5,39.3,87.8,87.8,87.8c48.5,0,87.8-39.3,87.8-87.8
		C-6664.1,4504.4-6703.5,4465.1-6752,4465.1L-6752,4465.1z"/>
</g>
<g id="XMLID_78_">
	<circle id="XMLID_15_" class="st5" cx="-6753.7" cy="4414.8" r="15.8"/>
	<circle id="XMLID_22_" class="st5" cx="-6857.7" cy="4465.4" r="16.6"/>
	<circle id="XMLID_23_" class="st5" cx="-6886" cy="4577.2" r="14.2"/>
	<circle id="XMLID_24_" class="st5" cx="-6818.3" cy="4670.8" r="17.4"/>
	<circle id="XMLID_25_" class="st5" cx="-6703.2" cy="4679.1" r="14.2"/>
	<circle id="XMLID_26_" class="st5" cx="-6622.6" cy="4596.5" r="15"/>
	<circle id="XMLID_28_" class="st5" cx="-6634.4" cy="4481.6" r="17.4"/>
	<path id="XMLID_30_" class="st5" d="M-6655,4455.1c-17.4-17.4-39.3-30.2-64-36.2"/>
	<path id="XMLID_35_" class="st5" d="M-6673.3,4663.3c13.7-9.6,25.4-21.6,34.9-35.4"/>
	<path id="XMLID_37_" class="st5" d="M-6789.6,4682.8c12.3,3.6,25.6,5.4,39,5.4c6.5,0,12.8-0.6,19.1-1.4"/>
	<path id="XMLID_36_" class="st5" d="M-6878.2,4603.3c6.5,16,16,30.3,27.5,42.5"/>
	<path id="XMLID_29_" class="st5" d="M-6873.5,4489.5c-8.5,16.7-13.7,35.7-14.7,55.6"/>
	<path id="XMLID_21_" class="st5" d="M-6784.5,4418.8c-18.3,4.4-35.1,12.6-49.6,23.7"/>
	<path id="XMLID_34_" class="st5" d="M-6615.8,4564.9c0.5-4.7,0.6-9.6,0.6-14.5c-0.2-15.3-2.8-30-7.6-43.6"/>
</g>
<g>
	<circle id="XMLID_52_" class="st5" cx="-6840.6" cy="4364.3" r="26.1"/>
	<circle id="XMLID_51_" class="st5" cx="-6950.9" cy="4502.5" r="20.5"/>
	<circle id="XMLID_50_" class="st5" cx="-6916" cy="4675.5" r="22.9"/>
	<circle id="XMLID_49_" class="st5" cx="-6761" cy="4760" r="24.5"/>
	<circle id="XMLID_48_" class="st5" cx="-6596.5" cy="4695.7" r="22.9"/>
	<circle id="XMLID_47_" class="st5" cx="-6540.1" cy="4528.3" r="23.7"/>
	<circle id="XMLID_46_" class="st5" cx="-6632.1" cy="4377.5" r="22.1"/>
	<path id="XMLID_45_" class="st5" d="M-6677.7,4354.6c-35.4-12.6-74.3-15.6-112.2-7.7"/>
	<path id="XMLID_44_" class="st5" d="M-6551.3,4480.4c-2.5-7-5.4-13.7-8.7-20.5c-10.3-21-23.7-39.5-39.2-55.3"/>
	<path id="XMLID_43_" class="st5" d="M-6565.7,4654.2c12.5-22.3,20.9-46.6,24.6-71.9"/>
	<path id="XMLID_42_" class="st5" d="M-6713.4,4757.7c19.4-3.3,38.9-9.3,57.4-18.5c8.8-4.4,17.4-9.3,25.3-14.7"/>
	<path id="XMLID_41_" class="st5" d="M-6888.3,4706.3c19.4,17.7,41.9,31.3,66,40.6"/>
	<path id="XMLID_40_" class="st5" d="M-6956.7,4546.1c-0.8,28.9,4.4,58.3,16.3,86.4"/>
	<path id="XMLID_39_" class="st5" d="M-6880.6,4390.2c-22.1,18.2-40,40.6-52.8,65.4"/>
</g>
<g>
	<circle id="XMLID_62_" class="st5" cx="-6766.8" cy="4264.4" r="37.6"/>
	<circle id="XMLID_61_" class="st5" cx="-6985.7" cy="4395.7" r="29.7"/>
	<circle id="XMLID_60_" class="st5" cx="-7025.5" cy="4647.7" r="33"/>
	<circle id="XMLID_59_" class="st5" cx="-6858.3" cy="4840.1" r="35.4"/>
	<circle id="XMLID_58_" class="st5" cx="-6603.3" cy="4835.6" r="33"/>
	<circle id="XMLID_57_" class="st5" cx="-6442.8" cy="4637.6" r="34.3"/>
	<circle id="XMLID_56_" class="st5" cx="-6491.3" cy="4387.2" r="31.9"/>
	<path id="XMLID_55_" class="st5" d="M-6541.5,4333.3c-41.6-34.9-92.6-58.6-147.9-67"/>
	<path id="XMLID_54_" class="st5" d="M-6433.8,4567c0-10.7-0.3-21.3-1.4-32.2c-3.3-33.7-12.2-65.4-25.1-94.5"/>
	<path id="XMLID_53_" class="st5" d="M-6540.7,4795.1c28.1-23.9,51.7-52.6,69.5-84.8"/>
	<path id="XMLID_38_" class="st5" d="M-6792.7,4860.8c28,5.2,57.4,7,86.9,3.8c14.2-1.6,28.3-3.8,41.6-7.1"/>
	<path id="XMLID_33_" class="st5" d="M-7003.5,4703c17.4,33.7,40.9,63.4,68.9,88.2"/>
	<path id="XMLID_32_" class="st5" d="M-7015.5,4452.1c-15.6,38.7-23.4,81.1-21.5,125.1"/>
	<path id="XMLID_27_" class="st5" d="M-6834,4279.1c-39,13.4-74.6,34.8-104.3,61.9"/>
</g>
</svg>
