<?xml version="1.0" encoding="utf-8"?>
<!-- Generator: Adobe Illustrator 19.0.0, SVG Export Plug-In . SVG Version: 6.00 Build 0)  -->
<svg version="1.1" id="Layer_1" xmlns="http://www.w3.org/2000/svg" xmlns:xlink="http://www.w3.org/1999/xlink" x="0px" y="0px"
	 viewBox="0 0 386.9 164.2" style="enable-background:new 0 0 386.9 164.2;" xml:space="preserve">
<style type="text/css">
	.st0{fill:#FFFFFF;}
</style>
<path id="XMLID_9_" class="st0" d="M386.9,62.4V46.5h-39.5V30.7h-15.8v15.8H292v15.8h39.5h15.8h7.4c-5.8,9.3-12.1,17.5-18.3,24.6
	c-4.7-5.1-9.1-10.7-12.8-16.7l-14,7.9c4.7,7.5,10.2,14.2,15.9,20.3c-13.8,13.6-24.9,20.8-25.2,20.9l9.6,14
	c4.2-2.8,15-10.3,27.8-23.3c17.3,15,33.2,23.3,33.2,23.3l7.8-13.8c0,0-14.8-7.8-30.4-21.2c8.3-9.8,16.9-21.8,24.7-36.2H386.9z"/>
<path id="XMLID_7_" class="st0" d="M62.5,129.5h16.7L47.4,34.7H31.6L0,129.5h16.7l5.1-15.8h35.6L62.5,129.5z M26.8,97.9l12.7-39.5
	l12.8,39.5H26.8z"/>
<path id="XMLID_27_" class="st0" d="M186.9,0h-0.3c-21.9,0.1-42.4,8.6-57.9,24.1c-15.4,15.5-24,36.1-24,58s8.5,42.5,24,58
	c15.4,15.5,36,24,57.9,24.1h0.3c45.3,0,82.1-36.8,82.1-82.1S232.1,0,186.9,0z M258,76.6h-30.6c-0.4-10.5-1.7-20.6-3.9-30.1
	c6.8-2.2,13.3-4.9,19.6-8.3C251.8,49.4,256.9,62.5,258,76.6L258,76.6z M181.3,76.6h-24.4c0.3-9.7,1.5-18.8,3.5-27.3
	c6.9,1.5,13.9,2.5,20.9,2.8V76.6z M181.3,87.6v24.4c-7,0.3-14.1,1.3-20.9,2.8c-2-8.4-3.2-17.6-3.5-27.2H181.3z M192.4,87.6h24.2
	c-0.3,9.6-1.5,18.8-3.5,27.2c-6.8-1.5-13.7-2.4-20.7-2.8V87.6z M192.4,76.6V52.1c7-0.3,14-1.3,20.7-2.8c2,8.4,3.2,17.6,3.5,27.2
	H192.4z M235.6,30c-4.9,2.4-9.9,4.5-15,6.1c-2.8-8.4-6.4-15.8-10.5-21.5C219.6,17.9,228.2,23.2,235.6,30z M210.1,39
	c-5.8,1.3-11.8,2.1-17.8,2.4v-29C199.1,16,205.6,25.8,210.1,39z M181.3,12.2v29.1c-6.1-0.3-12.1-1.1-18-2.4
	C167.9,25.6,174.6,15.8,181.3,12.2z M163.3,14.8c-4.1,5.7-7.6,13-10.4,21.4c-5.1-1.7-10-3.7-14.8-6.1C145.4,23.2,154,18,163.3,14.8z
	 M130.6,38.3c6.2,3.3,12.8,6.1,19.4,8.2c-2.3,9.4-3.6,19.5-3.9,30.1h-30.4C116.8,62.6,121.9,49.4,130.6,38.3z M115.7,87.6h30.4
	c0.4,10.5,1.7,20.6,3.9,30.1c-6.7,2.2-13.2,4.9-19.4,8.2C121.9,114.8,116.8,101.7,115.7,87.6z M138.1,134.2
	c4.8-2.4,9.8-4.4,14.8-6.1c2.8,8.4,6.3,15.6,10.4,21.4C154,146.2,145.4,141,138.1,134.2L138.1,134.2z M163.4,125.3
	c5.9-1.3,11.9-2.1,18-2.4V152C174.5,148.4,167.9,138.6,163.4,125.3z M192.4,151.8v-29c6,0.3,12,1.1,17.8,2.4
	C205.6,138.5,199.1,148.2,192.4,151.8z M210.1,149.6c4.1-5.8,7.7-13.1,10.5-21.5c5.1,1.7,10.2,3.8,15,6.2
	C228.3,141.1,219.6,146.3,210.1,149.6z M243.1,126c-6.3-3.4-12.9-6.1-19.6-8.3c2.2-9.4,3.5-19.5,3.9-30H258
	C256.9,101.7,251.8,114.8,243.1,126L243.1,126z"/>
</svg>
