<?xml version="1.0" encoding="utf-8"?>
<!-- Generator: Adobe Illustrator 19.0.0, SVG Export Plug-In . SVG Version: 6.00 Build 0)  -->
<svg version="1.1" id="Layer_1" xmlns="http://www.w3.org/2000/svg" xmlns:xlink="http://www.w3.org/1999/xlink" x="0px" y="0px"
	 viewBox="0 0 400 400" style="enable-background:new 0 0 400 400;" xml:space="preserve">
<style type="text/css">
	.st0{fill:#2C2C2C;}
	.st1{fill:#FFFFFF;}
</style>
<g id="Layer_4">
	<circle id="XMLID_1_" class="st0" cx="200" cy="200" r="200"/>
</g>
<g id="Layer_2">
	<g id="XMLID_3_">
		<path id="XMLID_9_" class="st1" d="M75.7,217.1c0.2-1.3,0.5-2.8,0.8-4.6s0.9-3.7,1.4-5.9c0.3-1.1,0.6-2.2,0.9-3.3
			c0.2-0.6,0.3-1.2,0.5-1.8s0.4-1.2,0.6-1.8c0.9-2.4,1.7-4.9,2.8-7.5c1.2-2.5,2.3-5.2,3.6-7.8c0.7-1.3,1.4-2.6,2.1-3.9
			c0.7-1.3,1.4-2.6,2.2-3.9c0.8-1.2,1.6-2.5,2.4-3.7c0.4-0.6,0.8-1.3,1.2-1.8c0.4-0.6,0.9-1.2,1.3-1.8c0.9-1.2,1.7-2.3,2.6-3.5
			c0.9-1.1,1.8-2.2,2.7-3.2c1.7-2.2,3.7-4,5.4-5.9c0.9-0.9,1.8-1.7,2.7-2.6c0.9-0.8,1.7-1.6,2.6-2.3c0.8-0.7,1.7-1.4,2.4-2.1
			c0.8-0.6,1.6-1.2,2.3-1.7c1.4-1.1,2.7-2,3.8-2.7c1.6-1.1,2.7-1.7,3.2-2c-50,2-79.1,27.3-89.5,57.1C63,165.7,75,180.2,75,220.9
			C75.1,220.4,75.3,219.1,75.7,217.1z"/>
		<path id="XMLID_11_" class="st1" d="M324.5,217.2c-0.3-1.2-0.7-2.7-1.2-4.5c-0.2-0.9-0.5-1.8-0.8-2.7c-0.3-1-0.7-1.9-1-3
			c-0.3-1-0.7-2.1-1.1-3.2c-0.2-0.6-0.4-1.1-0.6-1.7c-0.2-0.6-0.5-1.1-0.7-1.7c-1-2.3-1.9-4.8-3-7.3c-1.2-2.5-2.4-5-3.7-7.6
			c-0.7-1.3-1.4-2.5-2.1-3.8s-1.4-2.6-2.2-3.8c-0.8-1.2-1.6-2.5-2.3-3.7c-0.4-0.6-0.8-1.2-1.2-1.8c-0.4-0.6-0.8-1.2-1.3-1.8
			c-0.8-1.2-1.7-2.3-2.5-3.5c-0.9-1.1-1.7-2.2-2.6-3.3c-1.7-2.2-3.5-4.1-5.1-6c-0.8-0.9-1.7-1.8-2.5-2.6c-0.8-0.9-1.6-1.7-2.4-2.4
			c-0.8-0.8-1.6-1.5-2.3-2.2c-0.7-0.7-1.5-1.3-2.1-1.9c-1.3-1.2-2.6-2.2-3.6-3s-1.8-1.4-2.4-1.8c-0.3-0.2-0.5-0.4-0.7-0.5
			c-2.1-0.1-4.2-0.1-6.4-0.1c-6.2,0-21.6,37.3-50,37.3c-5.1,0-15.5-2.4-20.7-2.4s-15.5,2.4-20.6,2.4c-28.4,0-43.7-37.3-49.9-37.3
			c-2.2,0-4.3,0.1-6.4,0.1c-0.1,0.1-0.4,0.3-0.7,0.5c-0.6,0.4-1.4,1-2.4,1.8s-2.2,1.8-3.6,3c-0.7,0.6-1.4,1.2-2.1,1.9
			s-1.5,1.4-2.3,2.2c-0.8,0.7-1.6,1.6-2.4,2.4c-0.8,0.9-1.7,1.7-2.5,2.6c-1.6,1.9-3.5,3.8-5.1,6c-0.9,1.1-1.7,2.2-2.6,3.3
			c-0.8,1.1-1.6,2.3-2.5,3.5c-0.4,0.6-0.8,1.2-1.3,1.8c-0.4,0.6-0.8,1.2-1.2,1.8c-0.8,1.2-1.6,2.5-2.3,3.7c-0.8,1.2-1.5,2.5-2.2,3.8
			s-1.4,2.5-2.1,3.8c-1.3,2.6-2.5,5.1-3.7,7.6c-1.1,2.5-2,5-3,7.3c-0.2,0.6-0.5,1.2-0.7,1.7c-0.2,0.6-0.4,1.2-0.6,1.7
			c-0.4,1.1-0.7,2.2-1.1,3.2c-0.3,1-0.7,2-1,3c-0.4,0.9-0.6,1.9-0.8,2.7c-0.5,1.7-0.8,3.2-1.1,4.5c-0.6,2.1-1,3.4-1,3.8v0.1
			c13-29.2,32.4-16.1,46.4,13.7c-0.1-0.5-0.4-1.6-0.7-3.3c-0.2-1.1-0.5-2.5-0.8-4.1c-0.1-0.8-0.3-1.7-0.5-2.5
			c-0.1-0.9-0.3-1.9-0.4-2.8c-0.3-2-0.6-4.1-0.8-6.4c-0.2-2.3-0.4-4.7-0.6-7.2c-0.1-1.2-0.2-2.5-0.2-3.8c-0.1-1.3-0.1-2.6-0.1-3.9
			c-0.1-2.6,0-5.3,0-8c0-1.3,0.1-2.7,0.1-4c0.1-1.3,0.1-2.7,0.2-4s0.2-2.6,0.3-3.9c0.1-1.3,0.2-2.6,0.4-3.8c0.3-2.5,0.7-4.9,1.1-7.2
			c0.2-1.1,0.4-2.2,0.6-3.3s0.5-2.1,0.7-3.1c0.5-2,1-3.7,1.4-5.3c0.2-0.8,0.5-1.5,0.7-2.2s0.5-1.3,0.7-1.8c0.4-1.1,0.8-1.9,1-2.5
			c0.3-0.6,0.4-0.9,0.4-0.9s-0.1,0.3-0.3,0.9c-0.2,0.6-0.4,1.5-0.7,2.6c-0.3,1.1-0.6,2.5-0.9,4.1c-0.2,0.8-0.3,1.6-0.5,2.5
			c-0.1,0.9-0.4,1.8-0.5,2.8c-0.3,2-0.6,4.1-0.9,6.3s-0.5,4.6-0.8,7.1c-0.2,2.5-0.4,5-0.5,7.6c-0.1,1.3-0.1,2.6-0.2,3.9
			c-0.1,1.3-0.1,2.6-0.1,4c0,2.6-0.2,5.3-0.1,7.9c0.1,2.6,0,5.2,0.1,7.6c0.1,2.5,0.2,4.9,0.3,7.2c0.2,2.3,0.3,4.4,0.4,6.4
			s0.2,3.8,0.4,5.4c0.1,1.6,0.2,3,0.3,4.2c0.1,1.9,0.2,3.1,0.2,3.5c0,0.1,0.1,0.1,0.1,0.2c8.9-30.6,23-40.8,31.1,1
			c26.9-38.4,47.5,34.9,47.5,34.9s20.8-73.3,47.6-34.9c8-41.9,22.2-31.7,31.1-1c0.1-0.1,0.1-0.2,0.2-0.3c0-0.5,0.1-1.7,0.2-3.3
			c0.1-1.2,0.2-2.6,0.3-4.2c0.2-1.6,0.3-3.4,0.4-5.4s0.2-4.1,0.4-6.4c0.1-2.3,0.1-4.7,0.3-7.2c0.1-2.5,0.1-5,0.1-7.6
			c0.1-2.6,0-5.2-0.1-7.9c0-1.3,0-2.6-0.1-4c-0.1-1.3-0.1-2.6-0.2-3.9c-0.2-2.6-0.3-5.1-0.5-7.6c-0.3-2.5-0.4-4.9-0.8-7.1
			c-0.3-2.3-0.6-4.4-0.9-6.3c-0.1-1-0.3-1.9-0.5-2.8c-0.2-0.9-0.3-1.7-0.5-2.5c-0.3-1.6-0.6-3-0.9-4.1s-0.5-2-0.7-2.6
			s-0.3-0.9-0.3-0.9s0.1,0.3,0.4,0.9c0.3,0.6,0.6,1.4,1,2.5c0.2,0.6,0.4,1.2,0.7,1.8c0.2,0.7,0.4,1.4,0.7,2.2c0.5,1.6,1,3.3,1.4,5.3
			c0.2,1,0.5,2,0.7,3.1s0.4,2.2,0.6,3.3c0.5,2.3,0.8,4.7,1.1,7.2c0.2,1.2,0.3,2.5,0.4,3.8s0.3,2.6,0.3,3.9c0.1,1.3,0.1,2.6,0.2,4
			c0.1,1.3,0.1,2.7,0.1,4c0,2.7,0.1,5.4,0,8c0,1.3-0.1,2.6-0.1,3.9c0,1.3-0.1,2.6-0.2,3.8c-0.2,2.5-0.4,4.9-0.6,7.2
			c-0.3,2.3-0.6,4.4-0.8,6.4c-0.1,1-0.3,1.9-0.4,2.8c-0.2,0.9-0.3,1.7-0.5,2.5c-0.3,1.6-0.6,3-0.8,4.1c-0.3,1.5-0.5,2.5-0.6,3.1
			c13.9-29.7,33.5-42.6,46.4-13.5c0-0.1,0-0.1,0-0.2C325.4,220.4,325,219.1,324.5,217.2z"/>
		<path id="XMLID_12_" class="st1" d="M277.4,143.5c0.5,0.3,1.6,0.9,3.2,2c1.1,0.7,2.4,1.6,3.8,2.7c0.7,0.5,1.5,1.1,2.3,1.7
			c0.8,0.7,1.6,1.3,2.4,2.1c0.9,0.7,1.7,1.5,2.6,2.3s1.8,1.7,2.7,2.6c1.7,1.9,3.7,3.7,5.4,5.9c0.9,1.1,1.8,2.2,2.7,3.2
			c0.9,1.1,1.7,2.3,2.6,3.5c0.4,0.6,0.9,1.2,1.3,1.8s0.8,1.2,1.2,1.8c0.8,1.2,1.6,2.5,2.4,3.7s1.5,2.6,2.2,3.9
			c0.7,1.3,1.4,2.6,2.1,3.9c1.3,2.6,2.4,5.3,3.6,7.8c1.1,2.6,1.9,5.1,2.8,7.5c0.2,0.6,0.4,1.2,0.6,1.8s0.3,1.2,0.5,1.8
			c0.3,1.2,0.6,2.3,0.9,3.3c0.6,2.1,1.2,4.1,1.4,5.9c0.3,1.8,0.6,3.3,0.8,4.6c0.3,1.8,0.5,3,0.6,3.6c0.1-40.5,12.1-55,41.3-20.2
			C356.4,170.7,327.4,145.5,277.4,143.5z"/>
	</g>
</g>
</svg>
